<mxfile host="app.diagrams.net" modified="2023-05-02T03:54:31.746Z" agent="Mozilla/5.0 (Windows NT 10.0; Win64; x64) AppleWebKit/537.36 (KHTML, like Gecko) Chrome/112.0.0.0 Safari/537.36 Edg/112.0.1722.64" version="21.2.3" etag="L7gFUg8bCtyuN1D1dUAl" type="github">
  <diagram name="페이지-1" id="J0NzLSI2-rwP-Rtan7gO">
    <mxGraphModel>
      <root>
        <mxCell id="0" />
        <mxCell id="1" parent="0" />
      </root>
    </mxGraphModel>
  </diagram>
</mxfile>
